# xmcd
#
# Track frame offsets:
#	150
#	21645
#	44835
#	68175
#	85462
#	100884
#	117084
#	136134
#	152034
#
# Disc length: 2207 seconds
#
# Revision: 1
# Processed by: cddbd v1.5.1PL2 Copyright (c) Steve Scherf et al.
# Submitted via: audiograbber 1.82.02
#
DISCID=7d089d09
DTITLE=Paul Butterfield - Better Days
DYEAR=1900
DGENRE=Blues
TTITLE0=New Walking Blues
TTITLE1=Please Send Me Someone To Love
TTITLE2=Broke My Baby's Heart
TTITLE3=Done A Lot Of Wrong Things
TTITLE4=Baby Please Don't Go
TTITLE5=Buried Alive In The Blues
TTITLE6=Rule The Road
TTITLE7=Nobody's Fault But Mine
TTITLE8=Highway 28
EXTD=
EXTT0=
EXTT1=
EXTT2=
EXTT3=
EXTT4=
EXTT5=
EXTT6=
EXTT7=
EXTT8=
PLAYORDER=
